<svg xmlns="http://www.w3.org/2000/svg" viewBox="0 0 512 512">
  <circle cx="256" cy="256" r="256" fill="#0f172a"/>  
  <path d="M369.8 137.2c-23.4-19.4-56.1-31.8-98.8-31.8c-71.5 0-118.9 39.8-118.9 104.5c0 32.7 13.6 59.8 45.4 75.6l26.7 12.8c24.5 11.5 29.8 20.3 29.8 33.7c0 17.6-16.1 27.6-43.2 27.6c-31.8 0-61.9-10.7-82.6-22.2l-23.7 42.6c23.1 16.1 63.3 28.5 106.3 28.5c79.2 0 125.8-40.4 125.8-109.1c0-36.4-14.8-63-48.8-79.5l-24.8-11.8c-23.7-11.5-29.8-21.3-29.8-33.1c0-14.2 13.6-23.4 38.8-23.4c25.4 0 51.5 8.9 71.9 19.8l25.9-34.2z" fill="#007FFF"/>
</svg>
